<svg viewBox="0 0 192 192" width="192" height="192" fill="none" stroke="#000" stroke-linecap="round" stroke-linejoin="round" xmlns="http://www.w3.org/2000/svg">
  <path d="M 168.497 110.914 C 168.25 112.119 167.975 113.312 167.67 114.495 C 167.366 115.677 167.033 116.848 166.673 118.006 C 166.313 119.165 165.925 120.311 165.51 121.445 C 165.095 122.578 164.653 123.699 164.185 124.805 C 163.717 125.912 163.223 127.005 162.703 128.083 C 162.183 129.162 161.638 130.226 161.069 131.274 C 160.499 132.323 137.73 120.956 105.766 127.895 C 73.802 134.834 58.644 159.905 57.627 159.287 C 56.61 158.669 55.609 158.027 54.625 157.362 C 53.641 156.697 52.674 156.009 51.724 155.299 C 50.774 154.589 49.842 153.856 48.928 153.102 C 48.014 152.348 47.119 151.573 46.244 150.776 C 45.368 149.98 44.511 149.163 43.674 148.326 C 42.837 147.489 42.02 146.632 41.224 145.756 C 40.427 144.88 39.652 143.985 38.898 143.071 C 38.144 142.158 37.411 141.226 36.701 140.276 C 35.991 139.326 35.303 138.359 34.638 137.374 C 33.973 136.39 33.331 135.389 32.713 134.372 C 32.095 133.355 31.5 132.322 30.931 131.273 C 30.361 130.225 29.816 129.161 29.297 128.082 C 28.777 127.004 28.283 125.911 27.815 124.804 C 27.347 123.698 26.905 122.577 26.49 121.444 C 26.075 120.31 25.687 119.164 25.327 118.005 C 24.966 116.846 24.634 115.676 24.33 114.494 C 24.026 113.311 23.75 112.117 23.504 110.913 C 23.257 109.709 23.04 108.494 22.853 107.269 C 22.666 106.044 22.508 104.809 22.382 103.566 C 22.256 102.322 22.16 101.069 22.096 99.808 C 22.032 98.547 22 97.277 22 96 C 22 94.723 22.032 93.454 22.096 92.192 C 22.16 90.931 22.256 89.678 22.382 88.434 C 22.508 87.19 22.666 85.955 22.853 84.73 C 23.04 83.506 23.257 82.291 23.504 81.086 C 23.75 79.882 24.026 78.689 24.33 77.506 C 24.634 76.324 24.966 75.153 25.327 73.994 C 25.687 72.836 26.075 71.689 26.49 70.556 C 26.786 69.749 27.095 68.949 27.417 68.155 C 29.425 61.899 24.486 57.958 28.043 56.631 C 34.635 54.171 36.391 52.14 36.701 51.725 C 37.411 50.775 38.144 49.843 38.898 48.929 C 39.652 48.016 40.428 47.12 41.224 46.244 C 42.021 45.368 42.837 44.511 43.674 43.674 C 44.511 42.837 45.368 42.02 46.244 41.224 C 47.12 40.428 48.015 39.652 48.929 38.898 C 49.843 38.144 50.775 37.412 51.725 36.701 C 52.675 35.991 53.642 35.303 54.626 34.638 C 55.61 33.973 56.611 33.331 57.628 32.713 C 58.645 32.095 59.678 31.501 60.727 30.931 C 61.775 30.362 62.839 29.817 63.918 29.297 C 64.996 28.777 66.089 28.283 67.196 27.815 C 68.303 27.347 69.423 26.905 70.557 26.49 C 71.69 26.075 72.836 25.687 73.995 25.327 C 75.153 24.967 76.324 24.634 77.506 24.33 C 78.689 24.026 79.882 23.751 81.087 23.504 C 82.291 23.258 83.506 23.04 84.731 22.853 C 85.956 22.666 87.19 22.509 88.434 22.382 C 89.678 22.256 90.931 22.161 92.192 22.097 C 93.453 22.033 94.723 22 96 22 C 97.277 22 98.547 22.033 99.809 22.097 C 101.07 22.161 102.323 22.256 103.567 22.382 C 104.81 22.509 106.045 22.666 107.27 22.853 C 108.495 23.04 109.71 23.258 110.914 23.504 C 112.118 23.751 113.312 24.026 114.494 24.33 C 115.677 24.634 116.847 24.967 118.006 25.327 C 119.164 25.688 120.311 26.076 121.444 26.49 C 122.578 26.905 123.698 27.347 124.805 27.815 C 125.912 28.284 127.005 28.778 128.083 29.298 C 129.162 29.818 130.225 30.363 131.274 30.932 C 132.322 31.502 133.356 32.096 134.373 32.714 C 135.39 33.332 136.391 33.974 137.375 34.638 C 138.359 35.303 139.327 35.991 140.277 36.701 C 141.226 37.412 142.158 38.144 143.072 38.898 C 143.985 39.653 144.881 40.428 145.757 41.225 C 146.633 42.021 147.489 42.838 148.326 43.674 C 149.163 44.511 149.98 45.368 150.776 46.244 C 151.572 47.12 152.348 48.016 153.102 48.929 C 153.856 49.843 154.589 50.775 155.299 51.725 C 156.01 52.675 156.697 53.642 157.362 54.626 C 158.027 55.611 158.669 56.612 159.287 57.629 C 159.905 58.646 160.5 59.68 161.069 60.728 C 161.638 61.777 162.183 62.84 162.703 63.919 C 163.223 64.997 163.717 66.09 164.185 67.196 C 164.653 68.303 165.095 69.424 165.51 70.557 C 165.925 71.69 166.313 72.837 166.673 73.995 C 167.034 75.154 167.366 76.325 167.671 77.507 C 167.975 78.69 168.251 79.883 168.497 81.087 C 168.744 82.292 168.961 83.507 169.148 84.731 C 169.335 85.956 169.492 87.191 169.618 88.434 C 169.72 89.429 169.801 90.431 169.862 91.437 C 170.866 91.559 169.653 94.897 170.338 95.246 C 172.916 96.56 182.722 98.613 173.392 102.102 C 170.969 103.008 168.613 110.347 168.497 110.914 Z" stroke-width="12"></path>
  <path d="M 77.933 71.579 L 84.152 68.399 C 84.152 68.399 83.64 60.042 91.11 60.447 C 98.578 60.85 101.839 74.749 97.342 77.289 L 106.439 80.01 L 116.178 75.193 C 116.178 75.193 120.741 73.916 125.118 75.229 L 135.92 74.865 C 135.92 74.865 138.694 75.047 138.255 79.39 L 138.579 79.419 C 138.579 79.419 142.49 79.213 144.466 84.316 C 146.442 89.42 143.601 91.89 143.601 91.89 L 175.816 99.124 C 175.816 99.124 175.957 100.471 174.4 101.319 C 172.843 102.167 162.515 105.281 162.515 105.281 L 114.403 101.602 C 114.403 101.602 76.019 122.718 53.302 118.773 L 52.759 118.501 C 52.759 118.501 51.263 117.686 51.195 115.577 C 51.126 113.469 51.19 113.732 51.19 113.732 L 40.124 110.854 C 40.124 110.854 38.449 109.887 41.458 108.33 C 44.466 106.774 51.618 108.262 51.618 108.262 L 52.646 96.445 C 52.646 96.445 53.17 94.506 56.363 93.272 L 56.654 93.465 L 59.532 100.941 C 59.532 100.941 60.766 105.851 67.03 101.352 C 73.296 96.851 81.975 92.001 81.975 92.001 L 31.558 63.058 C 31.558 63.058 29.431 61.478 30.587 60.385 C 31.74 59.291 35.752 57.65 35.752 57.65 C 35.752 57.65 36.907 57.224 38.182 57.832 C 39.459 58.439 78.049 71.565 77.933 71.579 Z" style="stroke-width: 6px;" stroke-width="6"></path>
  <path d="M 52.968 114.245 C 52.968 114.245 52.697 116.625 54.763 116.847 C 56.831 117.067 67.182 120 98.089 107.197 C 128.995 94.394 135.2 83.692 135.498 77.49 L 135.18 78.02 C 135.18 78.02 129.984 85.595 115.608 91.809 C 101.231 98.024 90.169 103.012 90.169 103.012 C 90.169 103.012 61.417 116.436 52.968 114.245 Z" stroke-width="3"></path>
  <path d="M 72.901 81.814 C 72.901 81.814 81.365 80.98 93.366 73.766 L 92.97 73.843 C 92.97 73.843 89.231 75.164 88.228 70.13 L 88.008 70.179 C 88.008 70.179 81.559 74.114 79.359 73.112 L 79.286 73.283 C 79.286 73.283 77.698 78.072 72.901 81.814 Z" style="stroke-width: 3px;" stroke-width="3"></path>
</svg>