<svg width="192" height="192" viewBox="0 0 192 192" fill="none" stroke="#000" stroke-linecap="round" stroke-linejoin="round" stroke-width="1" xmlns="http://www.w3.org/2000/svg">
  <path d="M 162.318 110.202 L 162.284 109.464 C 162.284 109.464 170.496 106.896 171.437 105.666 C 172.377 104.436 169.338 104.147 169.338 104.147 L 169.122 103.858 C 169.953 102.954 169.303 102.193 169.303 102.193 L 162.652 100.69 C 162.045 63.622 135.836 46.649 135.836 46.649 C 135.836 46.649 114.317 25.745 79.643 31.977 C 44.969 38.208 34.745 61.752 33.238 61.273 C 31.733 60.794 30.158 61.58 30.158 61.58 C 30.021 61.58 30.751 61.9 28.267 60.906 C 25.782 59.913 22.028 62.452 20.813 63.446 C 19.598 64.441 21.336 65.499 21.336 65.499 L 28.546 70.177 C 23.869 74.853 16.073 100.772 24.064 125.13 C 32.054 149.488 52.116 161.183 52.116 161.183 C 52.116 161.183 88.401 112.132 155.926 133.017 L 155.987 132.994 C 155.987 132.994 159.076 128.68 162.318 110.202 Z" stroke-width="8"/>
  <path d="M 72.751 75.321 L 78.9 72.176 C 78.9 72.176 78.394 63.914 85.78 64.313 C 93.164 64.712 96.388 78.453 91.941 80.967 L 100.936 83.656 L 110.567 78.894 C 110.567 78.894 115.078 77.631 119.407 78.93 L 130.086 78.569 C 130.086 78.569 132.828 78.749 132.395 83.043 L 132.715 83.072 C 132.715 83.072 136.582 82.868 138.535 87.914 C 140.489 92.96 137.681 95.403 137.681 95.403 L 169.532 102.556 C 169.532 102.556 169.672 103.886 168.132 104.725 C 166.593 105.565 156.381 108.643 156.381 108.643 L 108.811 105.005 C 108.811 105.005 70.859 125.884 48.399 121.983 L 47.861 121.714 C 47.861 121.714 46.382 120.908 46.315 118.823 C 46.247 116.739 46.31 116.999 46.31 116.999 L 35.368 114.154 C 35.368 114.154 33.713 113.197 36.688 111.658 C 39.662 110.119 46.733 111.591 46.733 111.591 L 47.749 99.907 C 47.749 99.907 48.267 97.989 51.425 96.769 L 51.712 96.961 L 54.558 104.351 C 54.558 104.351 55.778 109.206 61.972 104.758 C 68.167 100.308 76.748 95.512 76.748 95.512 L 26.9 66.895 C 26.9 66.895 24.796 65.333 25.938 64.252 C 27.079 63.17 31.045 61.548 31.045 61.548 C 31.045 61.548 32.187 61.127 33.449 61.728 C 34.711 62.328 72.865 75.307 72.751 75.321 Z" stroke-width="6"/>
  <path d="M 67.777 85.44 C 67.777 85.44 76.145 84.616 88.011 77.482 L 87.618 77.56 C 87.618 77.56 83.922 78.865 82.931 73.888 L 82.713 73.936 C 82.713 73.936 76.337 77.826 74.162 76.836 L 74.09 77.005 C 74.09 77.005 72.52 81.74 67.777 85.44 Z"/>
  <path d="M 85.863 71.216 C 85.863 71.216 90.654 70.142 90.015 72.639 C 89.377 75.137 87.082 76.036 87.082 76.036 C 87.082 76.036 85.457 76.151 84.934 74.265 C 84.412 72.377 84.702 71.797 85.863 71.216 Z"/>
  <path d="M 48.067 117.507 C 48.067 117.507 47.799 119.859 49.843 120.078 C 51.888 120.296 62.121 123.196 92.68 110.537 C 123.24 97.878 129.373 87.297 129.669 81.165 L 129.353 81.688 C 129.353 81.688 124.217 89.178 110.002 95.322 C 95.787 101.467 84.85 106.401 84.85 106.401 C 84.85 106.401 56.421 119.673 48.067 117.507 Z"/>
  <path d="M 127.892 91.797 L 131.356 90.156 C 131.356 90.156 132.267 93.801 134.865 92.525 L 134.501 92.936 C 134.501 92.936 127.482 97.037 121.057 98.086 L 121.512 97.675 C 121.512 97.675 127.163 93.209 127.892 91.797 Z"/>
  <path d="M 133.212 88.299 C 133.212 88.299 135.481 87.632 136.348 88.321 C 137.215 89.011 134.702 92.346 133.524 91.167 C 132.345 89.989 132.789 88.61 133.212 88.299 Z"/>
  <path d="M 110.512 80.572 C 110.512 80.572 112.599 79.181 118.954 80.224 L 110.322 82.912 C 110.322 82.912 109.848 81.995 110.512 80.572 Z"/>
  <path d="M 73.359 103.217 L 73.332 106.189 C 73.332 106.189 74.01 106.869 75.228 105.34 L 75.255 102.538 C 75.255 102.538 75.001 101.858 73.359 103.217 Z"/>
  <path d="M 76.72 101.429 L 76.693 104.4 C 76.693 104.4 77.371 105.08 78.589 103.552 L 78.618 100.749 C 78.618 100.749 78.363 100.069 76.72 101.429 Z"/>
  <path d="M 82.097 99.157 L 82.07 102.129 C 82.07 102.129 82.748 102.809 83.966 101.28 L 83.994 98.478 C 83.994 98.478 83.74 97.798 82.097 99.157 Z"/>
  <path d="M 85.652 97.4 L 85.624 100.371 C 85.624 100.371 86.303 101.051 87.52 99.522 L 87.549 96.721 C 87.549 96.721 87.294 96.041 85.652 97.4 Z"/>
  <path d="M 90.745 95.083 L 90.718 98.055 C 90.718 98.055 91.397 98.734 92.614 97.205 L 92.642 94.404 C 92.642 94.404 92.388 93.724 90.745 95.083 Z"/>
  <path d="M 93.914 93.369 L 93.885 96.341 C 93.885 96.341 94.565 97.021 95.781 95.492 L 95.81 92.69 C 95.81 92.69 95.555 92.01 93.914 93.369 Z"/>
  <path d="M 99.193 90.599 L 99.165 93.571 C 99.165 93.571 99.844 94.25 101.061 92.722 L 101.089 89.919 C 101.089 89.919 100.834 89.241 99.193 90.599 Z"/>
  <path d="M 102.611 89.038 L 102.583 92.01 C 102.583 92.01 103.261 92.69 104.479 91.161 L 104.508 88.359 C 104.508 88.359 104.253 87.68 102.611 89.038 Z"/>
</svg>
