<svg viewBox="0 0 192 192" width="192" height="192" fill="none" stroke="#000" stroke-linecap="round" stroke-linejoin="round" stroke-width="8" xmlns="http://www.w3.org/2000/svg"><path d="M 90.427 38.124 L 90.427 23 L 102.456 23 L 102.456 38.086 C 102.456 38.086 117.338 45.394 126.577 38.124 L 131.214 38.124 L 131.214 71.065 L 125.519 71.065 C 125.519 71.065 117.969 46.461 101.566 45.999 L 90.597 45.999 C 90.597 45.999 77.423 49.502 78.251 60.744 C 79.08 71.986 91.707 77.147 91.707 77.147 C 91.707 77.147 116.679 86.822 123.682 93.09 C 130.687 99.357 135.477 104.352 137.505 113.935 C 139.533 123.518 137.781 134.587 127.83 145.185 C 117.877 155.78 102.487 156.334 102.487 156.334 L 102.487 169 L 90.502 169 L 90.502 156.283 C 90.502 156.283 71.281 147.168 60.787 155.869 L 54.569 155.869 L 54.569 121.16 L 60.378 121.16 C 60.378 121.16 64.033 133.146 71.129 139.781 C 71.129 139.781 79.018 146.556 85.101 147.849 L 102.307 147.849 C 102.307 147.849 121.748 141.17 109.031 121.634 C 109.031 121.634 102.732 117.739 73.118 103.48 C 43.502 89.22 56.664 57.518 56.664 57.518 C 56.664 57.518 63.793 36.954 90.427 38.124 Z"/></svg>