<svg xmlns="http://www.w3.org/2000/svg" width="192" height="192" viewBox="0 0 192 192"><path fill="none" d="M159 154H33.1c-6.2 0-11.1-5-11.1-11.1V49.1C22 42.9 27 38 33.1 38h125.8c6.2 0 11.1 5 11.1 11.1v93.7c.1 6.2-4.9 11.2-11 11.2zM96.1 38v116" stroke="#000" stroke-width="12"/><path stroke-linejoin="round" stroke="#000" stroke-width="6" d="M127.6 38v50.4l11.1-15.7 11.1 15.7V38z"/><path d="M 64.416 124.286 C 64.416 123.904 64.403 123.547 64.379 123.167 L 67.459 120.824 C 68.12 120.327 68.311 119.399 67.89 118.66 L 64.785 113.303 C 64.379 112.578 63.475 112.273 62.712 112.603 L 59.147 114.118 C 58.537 113.685 57.889 113.303 57.201 112.985 L 56.718 109.156 C 56.628 108.328 55.915 107.692 55.076 107.692 L 48.891 107.692 C 48.052 107.692 47.339 108.328 47.236 109.156 L 46.754 112.985 C 46.066 113.303 45.43 113.685 44.807 114.118 L 41.243 112.603 C 40.479 112.273 39.588 112.578 39.169 113.303 L 36.065 118.687 C 35.656 119.412 35.835 120.327 36.496 120.837 L 39.588 123.179 C 39.551 123.547 39.539 123.904 39.539 124.286 C 39.539 124.668 39.551 125.037 39.588 125.419 L 36.496 127.76 C 35.835 128.257 35.656 129.185 36.065 129.91 L 39.169 135.269 C 39.588 136.006 40.479 136.299 41.243 135.967 L 44.807 134.454 C 45.43 134.887 46.066 135.269 46.754 135.587 L 47.236 139.416 C 47.339 140.244 48.052 140.88 48.879 140.88 L 55.063 140.88 C 55.891 140.88 56.603 140.244 56.704 139.416 L 57.188 135.587 C 57.862 135.269 58.513 134.887 59.135 134.454 L 62.699 135.967 C 63.463 136.299 64.352 136.006 64.773 135.269 L 67.878 129.91 C 68.284 129.185 68.107 128.269 67.444 127.76 L 64.352 125.419 C 64.403 125.037 64.416 124.668 64.416 124.286 Z M 52.047 130.101 C 48.84 130.101 46.245 127.493 46.245 124.286 C 46.245 121.091 48.84 118.484 52.047 118.484 C 55.242 118.484 57.85 121.091 57.85 124.286 C 57.85 127.493 55.242 130.101 52.047 130.101 Z" stroke="#000" stroke-width="1"/></svg>