<svg viewBox="0 0 192 192" width="192" height="192" fill="none" stroke="#000" stroke-linecap="round" stroke-linejoin="round" stroke-width="12" xmlns="http://www.w3.org/2000/svg"><path d="M 73.673 139.773 C 76.888 125.231 80.103 110.693 83.321 96.151 C 84.187 92.232 87.184 85.162 85.431 81.088 C 82.845 75.08 74.522 77.246 71.259 81.155 C 69.468 83.304 69.09 85.956 68.501 88.573 C 64.876 104.736 61.247 120.903 57.619 137.066 C 56.554 141.818 51.767 139.773 47.256 139.773 C 39.838 139.773 32.418 139.773 25 139.773 C 28.932 121.464 32.303 102.937 36.864 84.78 C 42.636 61.81 60.612 49.221 84.258 52.199 C 89.216 52.824 94.019 54.416 98.217 57.151 C 99.777 58.17 103.932 63.194 105.335 63.357 C 113.88 56.694 125.077 51.962 136.024 51.962 C 144.392 51.962 153.632 53.297 160.021 59.221 C 161.093 60.217 162.019 61.295 162.815 62.435 C 167.797 69.584 167.648 79.259 165.873 87.611 C 163.857 97.093 161.839 106.572 159.823 116.054 C 159.376 118.164 155.949 139.773 154.366 139.773 C 144.05 139.773 133.732 139.773 123.413 139.773 C 123.11 139.773 122.811 139.773 122.508 139.773 C 125.458 125.433 128.407 111.088 131.355 96.745 C 132.174 92.773 135.133 85.511 133.352 81.398 C 130.762 75.411 122.484 77.521 119.196 81.452 C 117.342 83.668 117.033 86.284 116.497 88.98 C 113.323 104.978 110.146 120.983 106.97 136.984 C 105.996 141.899 101.06 139.776 96.439 139.776 C 88.85 139.773 81.263 139.773 73.673 139.773"/></svg>
