<svg width="192" height="192" viewBox="0 0 192 192" fill="none" xmlns="http://www.w3.org/2000/svg"><path d="M 72.755 141.575 C 76.102 126.435 79.449 111.298 82.8 96.158 C 83.701 92.078 86.821 84.717 84.996 80.475 C 82.304 74.22 73.638 76.475 70.241 80.545 C 68.377 82.783 67.983 85.544 67.37 88.268 C 63.596 105.096 59.817 121.928 56.04 138.757 C 54.931 143.704 49.947 141.575 45.251 141.575 C 37.528 141.575 29.802 141.575 22.079 141.575 C 26.173 122.513 29.682 103.223 34.431 84.319 C 40.441 60.404 59.156 47.297 83.775 50.398 C 88.937 51.048 93.938 52.706 98.308 55.554 C 99.933 56.614 104.259 61.845 105.719 62.015 C 114.616 55.078 126.274 50.151 137.671 50.151 C 146.383 50.151 156.003 51.541 162.655 57.709 C 163.771 58.746 164.735 59.868 165.564 61.055 C 170.751 68.498 170.596 78.571 168.748 87.267 C 166.649 97.139 164.548 107.008 162.449 116.88 C 161.984 119.077 158.416 141.575 156.768 141.575 C 146.027 141.575 135.285 141.575 124.541 141.575 C 124.226 141.575 123.914 141.575 123.599 141.575 C 126.67 126.645 129.741 111.71 132.81 96.777 C 133.663 92.641 136.743 85.08 134.889 80.798 C 132.192 74.565 123.574 76.762 120.151 80.854 C 118.22 83.161 117.899 85.885 117.341 88.692 C 114.036 105.348 110.728 122.012 107.422 138.671 C 106.407 143.788 101.268 141.578 96.457 141.578 C 88.556 141.575 80.657 141.575 72.755 141.575" stroke="#000" stroke-width="12" stroke-linecap="round" stroke-linejoin="round"/></svg>
