<svg viewBox="0 0 192 192" width="192" height="192" fill="#000" stroke="none" xmlns="http://www.w3.org/2000/svg"><path d="M 124.936 115.866 C 124.936 115.866 123.774 115.934 123.043 115.92 C 122.303 115.906 121.487 115.852 120.582 115.72 C 118.755 115.455 116.797 114.92 114.903 113.811 C 111.063 111.563 107.965 107.509 108.26 98.924 C 117.783 92.162 122.797 85.037 125.121 78.425 C 127.465 71.754 127.075 66.16 126.138 61.825 C 129.876 58.956 133.769 56.771 138.391 55.053 C 139.294 54.679 140.226 54.401 141.04 54.339 C 141.815 54.28 142.155 54.224 142.276 54.615 C 142.965 55.538 144.1 56.344 145.189 56.717 C 146.284 57.093 147.671 57.166 148.682 56.795 C 149.72 56.415 150.739 55.308 150.917 53.913 C 151.079 52.641 150.659 50.794 149.523 48.593 C 148.814 47.304 147.634 46.113 146.199 45.424 C 144.79 44.747 142.913 44.424 140.869 44.564 C 136.934 44.873 129.395 47.057 121.374 52.803 C 112.131 43.809 98.632 44.038 88.928 44.422 C 71.447 45.159 48.025 51.009 37.787 54.619 C 34.597 55.767 32.372 57.356 31.17 59.082 C 29.935 60.856 29.614 63.034 29.984 64.963 C 30.71 68.743 34.037 72.6 37.552 74.944 C 42.08 78.165 46.778 81.168 51.605 83.924 C 54.41 85.59 69.242 94.465 77.728 103.344 C 78.288 103.935 78.581 104.293 78.745 104.565 C 78.853 104.745 78.819 104.511 78.832 104.475 C 78.819 104.511 78.497 104.651 77.766 105.445 C 76.855 106.783 76.627 108.522 76.969 109.848 C 77.312 111.173 78.179 112.478 79.027 113.256 C 79.782 113.815 80.13 113.915 80.272 114.076 C 80.502 114.339 80.652 114.754 80.611 116.482 C 80.8 125.363 81.914 134.283 83.925 142.935 C 85.387 148.925 88.068 154.661 91.731 159.621 C 94.179 162.42 97.131 164.259 99.47 163.978 C 100.694 163.831 101.985 163.038 102.836 161.806 C 103.645 160.634 104.277 158.841 104.621 156.599 C 105.039 151.985 105.102 147.267 104.794 142.646 C 104.641 138.491 103.813 124.906 93.226 108.886 C 92.691 108.115 92.609 107.929 92.632 107.786 C 92.64 107.733 92.568 107.826 93.094 107.602 C 96.937 105.721 97.597 105.371 98.87 104.726 C 100.027 112.732 102.78 117.879 107.108 121.189 C 111.456 124.515 117.212 125.55 123.195 125.335 C 133.105 124.945 149.972 118.737 167.686 107.797 L 167.669 107.807 L 167.524 107.877 C 168.515 107.396 169.395 106.256 169.824 105.053 C 170.244 103.878 170.469 102.387 170.475 101.071 C 170.482 99.745 170.257 98.343 169.806 97.434 C 169.563 96.942 169.111 96.403 168.65 96.161 C 168.171 95.909 167.386 95.914 166.782 96.111 L 166.712 96.134 L 166.606 96.204 C 149.857 107.356 135.113 115.036 124.867 115.857 M 117.741 66.682 C 117.741 66.682 117.403 77.195 109.617 84.279 C 109.692 81.973 110.537 80.804 112.423 77.08 C 113.367 75.215 114.451 73.392 115.649 71.718 C 116.248 70.882 116.853 70.113 117.488 69.392 C 118.121 68.673 119.49 67.39 119.49 67.39 M 95.9 138.157 C 96.416 142.734 96.511 145.544 96.366 147.233 C 96.297 148.034 96.203 148.433 96.074 148.693 C 96.032 148.779 96.086 148.712 96.085 148.712 C 96.122 148.686 96.351 148.623 96.389 148.625 C 96.262 148.618 96.079 148.341 95.638 147.68 C 95.197 147.018 94.846 146.313 94.723 146.028 C 92.773 141.575 90.626 130.278 90.111 121.762 C 91.323 123.777 91.929 124.802 93.23 128.074 C 93.881 129.71 94.423 131.356 94.872 133.061 C 95.097 133.914 95.292 134.759 95.465 135.626 C 95.638 136.493 95.913 138.289 95.913 138.289 M 98.433 92.543 C 96.426 93.938 92.654 96.01 90.308 97.418 C 89.9 97.678 89.657 97.865 89.497 97.878 C 89.47 97.88 89.738 97.968 89.744 97.975 C 89.682 97.907 89.647 97.859 89.589 97.488 C 89.269 95.789 88.517 93.904 86.993 92.931 C 85.517 91.99 83.368 91.861 80.388 92.743 C 76.851 89.584 73.255 86.743 69.195 83.95 C 65.942 81.695 58.745 77.023 53.636 73.545 C 50.202 71.364 46.941 69.052 43.756 66.525 C 42.674 65.629 42.452 65.141 42.475 64.627 C 42.495 64.167 42.713 63.935 43.369 63.482 C 44.763 62.521 47.123 61.914 48.636 61.473 C 52.461 60.308 55.86 59.269 60.218 58.24 C 69.259 56.358 78.38 55.094 87.597 54.451 C 94.735 54.054 107.788 52.715 113.91 59.426 C 108.929 63.786 105.601 68.483 102.782 74.323 C 101.372 77.244 100.237 80.354 99.434 83.513 C 99.033 85.092 98.705 86.72 98.463 88.343 C 98.342 89.154 98.24 89.982 98.16 90.801 C 98.08 91.621 97.986 93.233 97.986 93.233"/></svg>
