<svg width="192" height="192" viewBox="0 0 192 192" fill="#000" stroke="none" xmlns="http://www.w3.org/2000/svg"><path d="M 122.738 109.579 C 118.572 109.918 102.967 109.579 103.697 89.632 C 124.563 75.121 125.091 59.013 122.851 49.725 C 127.1 46.382 131.842 43.721 136.908 41.834 C 138.96 40.991 141.452 40.475 142.358 41.746 C 144.774 45.194 153.055 45.333 148.348 36.372 C 147.014 33.855 144.182 32.282 140.042 32.597 C 135.902 32.912 127.558 35.303 118.799 41.834 C 109.234 31.603 94.397 32.031 83.926 32.446 C 65.162 33.226 40.034 39.511 29.031 43.395 C 15.801 48.065 21.663 58.564 29.031 63.43 C 33.9 66.897 38.94 70.119 44.133 73.082 C 47.141 74.87 63.3 84.56 72.575 94.238 C 75.092 96.906 73.833 96.528 72.663 97.938 C 70.913 100.253 72.273 103.425 73.921 104.884 C 74.941 105.816 76.023 105.111 75.985 109.176 C 76.183 118.708 77.372 128.193 79.534 137.479 C 81.076 143.843 83.878 149.835 87.777 155.098 C 92.811 160.925 98.374 161.592 99.758 152.317 C 100.207 147.378 100.265 142.414 99.934 137.467 C 99.77 133.012 98.965 118.589 87.626 101.562 C 86.368 99.712 86.619 99.183 87.941 98.592 C 92.081 96.566 95.492 94.816 95.492 94.816 C 97.518 113.429 108.152 118.124 120.838 117.645 C 131.371 117.255 149.317 110.636 168.345 98.869 C 171.625 97.588 171.729 86.787 168.345 88.172 C 150.211 100.241 134.039 108.622 122.776 109.566 M 116.068 55.451 C 116.068 55.451 115.426 69.055 104.741 76.984 C 104.955 71.711 110.203 60.51 116.068 55.451 M 92.484 132.445 C 94.724 152.38 89.728 142.828 89.149 141.494 C 87.009 136.573 83.876 120.238 83.976 111.101 C 88.506 117.437 91.425 124.78 92.484 132.496 M 94.762 84.207 C 92.547 85.743 88.469 87.983 85.952 89.493 C 85.122 90.022 83.939 90.94 83.536 88.864 C 82.907 85.39 81.019 82.471 74.399 84.749 C 70.475 81.205 66.322 77.926 61.966 74.932 C 58.467 72.504 50.727 67.482 45.203 63.719 C 41.471 61.351 37.867 58.789 34.405 56.043 C 29.232 51.537 36.834 49.687 40.068 48.743 C 44.196 47.485 47.908 46.352 52.653 45.232 C 62.456 43.191 72.388 41.815 82.378 41.117 C 90.068 40.689 105.622 39.342 112.355 47.674 C 101.75 56.926 95.386 70.11 94.737 84.17"/></svg>
